<?xml version="1.0" standalone="no"?>
<!DOCTYPE svg PUBLIC "-//W3C//DTD SVG 20010904//EN"
 "http://www.w3.org/TR/2001/REC-SVG-20010904/DTD/svg10.dtd">
<svg version="1.0" xmlns="http://www.w3.org/2000/svg"
 width="424.000000pt" height="193.000000pt" viewBox="0 0 424.000000 193.000000"
 preserveAspectRatio="xMidYMid meet">

<g transform="translate(0.000000,193.000000) scale(0.100000,-0.100000)"
fill="#000000" stroke="none">
<path d="M2177 734 c-4 -4 -7 -43 -7 -86 0 -63 3 -78 15 -78 8 0 15 9 15 19 0
30 16 33 28 6 7 -14 18 -25 27 -25 19 0 19 9 0 34 -13 17 -13 22 0 36 9 10 13
25 9 34 -7 18 -39 22 -49 6 -3 -5 1 -10 9 -10 19 0 21 -11 4 -28 -20 -20 -25
-14 -26 35 -1 46 -12 70 -25 57z"/>
<path d="M2470 707 c0 -9 -6 -18 -12 -21 -10 -5 -10 -7 0 -12 7 -3 12 -25 12
-55 0 -42 3 -49 20 -49 11 0 20 5 20 10 0 6 -4 10 -10 10 -5 0 -10 18 -10 40
0 29 4 40 15 40 8 0 15 5 15 10 0 6 -7 10 -15 10 -8 0 -14 5 -12 11 1 6 -4 14
-10 16 -7 3 -13 -2 -13 -10z"/>
<path d="M1660 679 c0 -4 5 -11 10 -14 6 -3 10 -26 10 -51 0 -24 5 -44 10 -44
6 0 10 16 10 36 0 40 16 77 31 69 5 -4 9 -28 9 -56 0 -37 4 -49 15 -49 11 0
15 12 15 44 0 41 19 74 33 59 4 -3 7 -28 7 -55 0 -36 4 -48 15 -48 18 0 21 70
5 101 -11 20 -45 26 -55 9 -4 -6 -12 -7 -18 -3 -16 11 -97 12 -97 2z"/>
<path d="M1900 675 c-6 -8 -9 -19 -5 -25 11 -17 25 -11 25 11 0 25 33 23 38
-3 2 -11 -8 -20 -32 -28 -28 -9 -36 -17 -36 -36 0 -19 5 -24 24 -24 14 0 28 4
31 10 4 6 13 5 25 -2 11 -7 21 -10 24 -8 8 9 -14 104 -27 112 -19 12 -54 9
-67 -7z m56 -61 c-3 -9 -6 -18 -6 -20 0 -2 -7 -4 -15 -4 -18 0 -20 26 -2 33
23 10 29 7 23 -9z"/>
<path d="M2034 679 c-2 -4 0 -10 6 -14 5 -3 10 -26 10 -51 0 -29 4 -44 13 -44
8 0 12 12 9 38 -3 44 13 75 27 53 11 -17 32 -5 25 14 -6 14 -81 18 -90 4z"/>
<path d="M2326 668 c-32 -46 -5 -101 47 -96 17 2 33 10 35 18 4 13 3 13 -11 2
-12 -10 -21 -11 -36 -2 -26 14 -27 30 -2 30 34 0 51 12 51 35 0 40 -59 49 -84
13z m59 2 c8 -13 -13 -40 -31 -40 -17 0 -18 22 -2 38 15 15 25 15 33 2z"/>
</g>
</svg>
